<mxfile host="app.diagrams.net" modified="2023-05-05T08:58:13.620Z" agent="Mozilla/5.0 (Macintosh; Intel Mac OS X 10_15_7) AppleWebKit/537.36 (KHTML, like Gecko) Chrome/113.0.0.0 Safari/537.36" version="21.2.1" etag="at66kUVijzpTUrjuMyGc" type="github">
  <diagram name="Page-1" id="2nKTsskmxYwweeuYti3_">
    <mxGraphModel>
      <root>
        <mxCell id="0" />
        <mxCell id="1" parent="0" />
      </root>
    </mxGraphModel>
  </diagram>
</mxfile>
